<?xml version="1.0" encoding="UTF-8"?>
<svg width="38px" height="39px" viewBox="0 0 38 39" version="1.1" xmlns="http://www.w3.org/2000/svg" xmlns:xlink="http://www.w3.org/1999/xlink">
    <!-- Generator: Sketch 53.2 (72643) - https://sketchapp.com -->
    <title>形状 copy 2</title>
    <desc>Created with Sketch.</desc>
    <g id="Page-1" stroke="none" stroke-width="1" fill="none" fill-rule="evenodd">
        <g id="报损-copy" transform="translate(-682.000000, -390.000000)" fill="#787E8E" fill-rule="nonzero">
            <g id="分组" transform="translate(0.000000, 359.000000)">
                <path d="M718.511298,59.0194333 L718.511298,59.0194333 C719.333489,59.0194333 720.000007,59.6859508 720.000007,60.5081418 L720.000007,65.9779294 C720.016571,68.9762204 718.577783,68.9987459 717.550922,69.0044187 C717.531491,69.004526 717.537968,69.0044506 717.531491,69.0044187 L711.530542,69.0044187 C710.693703,69.0044187 710.014267,68.3280049 710.010537,67.491174 L710.010537,67.491174 C710.006828,66.6591492 710.678311,65.9816532 711.510335,65.9779444 C711.512574,65.9779344 711.514812,65.9779294 711.517051,65.9779294 L715.789034,65.9779294 C716.208768,65.9779294 717.022606,65.4739617 717.022606,65.0542233 L717.022594,60.5081418 C717.022592,59.685953 717.689106,59.0194355 718.511294,59.0194333 C718.511296,59.0194333 718.511297,59.0194333 718.511298,59.0194333 Z M684.977437,60.479952 L684.977424,65.0260251 C684.977424,65.4457635 685.791263,65.9497312 686.210997,65.9497312 L690.48298,65.9497312 C690.485219,65.9497312 690.487457,65.9497361 690.489695,65.9497461 C691.32172,65.953455 691.993203,66.630951 691.989494,67.4629758 C691.985764,68.2998066 691.306328,68.9762204 690.469489,68.9762204 L684.46854,68.9762204 C684.462063,68.9762523 684.46854,68.9763278 684.449109,68.9762204 C683.422248,68.9705477 681.994351,66.9766091 682.000024,65.9497312 L682.000011,60.4799484 C682.000011,59.6577547 682.66653,58.9912351 683.488724,58.9912351 C684.310921,58.9912373 684.977439,59.6577586 684.977437,60.479952 Z M717.01881,39.5363281 L717.018822,34.8229731 C717.018822,34.4032347 716.204984,33.899267 715.78525,33.8992671 L711.429991,33.8992671 C710.637244,33.8955433 710.003045,33.2553319 710.006752,32.4692989 C710.010483,31.678462 710.652629,31.0393308 711.443474,31.0393124 C715.780795,31.0392598 717.955319,31.039266 717.967048,31.0393308 C718.99391,31.0450035 720.001896,32.8723891 719.996223,33.8992671 L719.996242,39.5363331 C719.996242,40.3585279 719.329721,41.0250485 718.507526,41.0250485 C717.685327,41.0250464 717.018808,40.3585235 717.01881,39.5363281 Z M682.000005,39.5363331 L682.000024,33.8992671 C681.994351,32.8723891 683.001939,31.0393308 684.028816,31.0393308 L690.528744,31.0000271 C691.330639,30.9951782 691.984634,31.641312 691.989483,32.4432074 L691.989494,32.4452511 C691.993202,33.2445651 691.348236,33.8955433 690.548922,33.8992515 L690.542208,33.8992671 L686.210997,33.8992671 C685.791263,33.899267 684.977424,34.4032347 684.977424,34.8229731 L684.977437,39.5363281 C684.977439,40.3585235 684.31092,41.0250464 683.488724,41.0250485 C682.666526,41.0250485 682.000005,40.3585279 682.000005,39.5363331 Z M717.967048,50.4761594 L717.967048,50.4761594 C717.967048,51.2962604 717.302225,51.9610837 716.482124,51.9610837 L685.51374,51.9610837 C684.693639,51.9610837 684.028816,51.2962604 684.028816,50.4761594 L684.028816,50.4761594 C684.028816,49.6560583 684.693639,48.9912351 685.51374,48.9912351 L716.482124,48.9912351 C717.302225,48.9912351 717.967048,49.6560583 717.967048,50.4761594 Z" id="形状-copy-2"></path>
            </g>
        </g>
    </g>
</svg>