<?xml version="1.0" encoding="UTF-8"?>
<svg width="38px" height="38px" viewBox="0 0 38 38" version="1.1" xmlns="http://www.w3.org/2000/svg" xmlns:xlink="http://www.w3.org/1999/xlink">
    <!-- Generator: Sketch 53.2 (72643) - https://sketchapp.com -->
    <title>扫一扫</title>
    <desc>Created with Sketch.</desc>
    <g id="Page-1" stroke="none" stroke-width="1" fill="none" fill-rule="evenodd">
        <g id="联营商-商品榜单-copy-3" transform="translate(-682.000000, -69.000000)" fill="#787E8E">
            <g id="扫一扫" transform="translate(682.000000, 69.000000)">
                <circle id="椭圆形" cx="9.5" cy="1.72727273" r="1.72727273"></circle>
                <circle id="椭圆形" cx="28.5" cy="1.72727273" r="1.72727273"></circle>
                <circle id="椭圆形" cx="9.5" cy="36.2727273" r="1.72727273"></circle>
                <circle id="椭圆形" cx="1.72727273" cy="9.5" r="1.72727273"></circle>
                <circle id="椭圆形" cx="1.72727273" cy="28.5" r="1.72727273"></circle>
                <circle id="椭圆形" cx="36.2727273" cy="9.5" r="1.72727273"></circle>
                <circle id="椭圆形" cx="36.2727273" cy="28.5" r="1.72727273"></circle>
                <circle id="椭圆形" cx="28.5" cy="36.2727273" r="1.72727273"></circle>
                <path d="M0,9.60795455 L0,4 C-2.705415e-16,1.790861 1.790861,4.05812251e-16 4,0 L9.5,0 L9.5,3.45454545 L4.45454545,3.45454545 C3.9022607,3.45454545 3.45454545,3.9022607 3.45454545,4.45454545 L3.45454545,9.60795455 L0,9.60795455 Z M4.4408921e-16,28.6079545 L3.45454545,28.6079545 L3.45454545,33.5454545 C3.45454545,34.0977393 3.9022607,34.5454545 4.45454545,34.5454545 L9.5,34.5454545 L9.5,38 L4,38 C1.790861,38 2.705415e-16,36.209139 0,34 L0,28.6079545 Z M38,9.60795455 L34.5454545,9.60795455 L34.5454545,4.45454545 C34.5454545,3.9022607 34.0977393,3.45454545 33.5454545,3.45454545 L28.5,3.45454545 L28.5,0 L34,0 C36.209139,-4.05812251e-16 38,1.790861 38,4 L38,9.60795455 Z M38,28.6079545 L38,34 C38,36.209139 36.209139,38 34,38 L28.5,38 L28.5,34.5454545 L33.5454545,34.5454545 C34.0977393,34.5454545 34.5454545,34.0977393 34.5454545,33.5454545 L34.5454545,28.6079545 L38,28.6079545 Z M2.59090909,17.2727273 L35.4090909,17.2727273 C36.3630373,17.2727273 37.1363636,18.0460536 37.1363636,19 C37.1363636,19.9539464 36.3630373,20.7272727 35.4090909,20.7272727 L2.59090909,20.7272727 C1.6369627,20.7272727 0.863636364,19.9539464 0.863636364,19 C0.863636364,18.0460536 1.6369627,17.2727273 2.59090909,17.2727273 Z" id="合并形状"></path>
            </g>
        </g>
    </g>
</svg>