<?xml version="1.0" encoding="UTF-8"?>
<svg width="278px" height="278px" viewBox="0 0 278 278" version="1.1" xmlns="http://www.w3.org/2000/svg" xmlns:xlink="http://www.w3.org/1999/xlink">
    <!-- Generator: Sketch 53.2 (72643) - https://sketchapp.com -->
    <title>价签绑定</title>
    <desc>Created with Sketch.</desc>
    <defs>
        <linearGradient x1="47.6419271%" y1="0%" x2="50%" y2="100%" id="linearGradient-1">
            <stop stop-color="#5179CA" offset="0%"></stop>
            <stop stop-color="#1A3897" offset="100%"></stop>
        </linearGradient>
        <linearGradient x1="13.3311146%" y1="15.580852%" x2="84.3358328%" y2="81.4887389%" id="linearGradient-2">
            <stop stop-color="#9DD75E" offset="0%"></stop>
            <stop stop-color="#449522" offset="100%"></stop>
        </linearGradient>
    </defs>
    <g id="Page-1" stroke="none" stroke-width="1" fill="none" fill-rule="evenodd">
        <g id="08电子价签" transform="translate(-236.000000, -228.000000)">
            <g id="分组-3" transform="translate(70.000000, 228.000000)">
                <g id="价签绑定" transform="translate(166.000000, 0.000000)">
                    <circle id="椭圆形" fill="url(#linearGradient-1)" opacity="0.105422247" cx="139" cy="139" r="139"></circle>
                    <circle id="椭圆形" fill="url(#linearGradient-2)" cx="139" cy="139" r="129"></circle>
                    <path d="M178.481754,72 L126.3075,72 C121.622066,72 117.789255,75.8170915 117.789255,80.482131 L117.789255,125.013319 C117.789255,129.678358 121.622066,133.49545 126.3075,133.49545 L146.538334,133.49545 L146.538334,128.194118 L126.3075,128.194118 C125.46619,128.194118 124.667605,127.865435 124.060414,127.250348 C123.453755,126.646129 123.113158,125.850929 123.113158,125.013319 L123.113158,80.482131 C123.113158,79.6445206 123.442841,78.8493208 124.060414,78.2451015 C124.667605,77.6404846 125.46619,77.3013319 126.3075,77.3013319 L178.481754,77.3013319 C179.322399,77.3013319 180.120984,77.6300145 180.728442,78.2451015 C181.334967,78.8493208 181.676097,79.6445206 181.676097,80.482131 L181.676097,125.013319 C181.676097,125.850929 181.346014,126.646129 180.728442,127.250348 C180.120984,127.854965 179.322399,128.194118 178.481754,128.194118 L169.760801,128.194118 L169.760801,133.49545 L178.481754,133.49545 C183.166656,133.49545 187,129.678358 187,125.013319 L187,80.482131 C187,75.8170915 183.166656,72 178.481754,72 M161.210745,113.986681 L161.210745,158.517869 C161.210745,163.182909 157.377535,167 152.6925,167 L100.518246,167 C95.8334767,167 92,163.182909 92,158.517869 L92,113.986681 C92,109.321642 95.8334767,105.50455 100.518246,105.50455 L108.237906,105.50455 L108.237906,110.805882 L100.528627,110.805882 C99.6879828,110.805882 98.8893973,111.134565 98.2822061,111.749652 C97.6754142,112.353738 97.3342851,113.148938 97.3342851,113.986681 L97.3342851,158.517869 C97.3342851,159.355479 97.6645002,160.150679 98.2822061,160.754899 C98.8893973,161.358985 99.6879828,161.698668 100.528627,161.698668 L152.702881,161.698668 C153.544191,161.698668 154.342777,161.369853 154.949968,160.754899 C155.556893,160.150679 155.897223,159.355479 155.897223,158.517869 L155.897223,113.986681 C155.897223,113.148938 155.567807,112.353738 154.949968,111.749652 C154.342777,111.144902 153.544191,110.805882 152.702881,110.805882 L131.449859,110.805882 L131.449859,105.50455 L152.6925,105.50455 C157.377535,105.50455 161.210745,109.321642 161.210745,113.986681" id="绑定" fill="#FFFFFF"></path>
                    <text font-family="PingFangHK-Regular, PingFang HK" font-size="28" font-weight="normal" fill="#FFFFFF">
                        <tspan x="83" y="205">价签绑定</tspan>
                    </text>
                </g>
            </g>
        </g>
    </g>
</svg>