<?xml version="1.0" encoding="UTF-8"?>
<svg width="44px" height="44px" viewBox="0 0 44 44" version="1.1" xmlns="http://www.w3.org/2000/svg" xmlns:xlink="http://www.w3.org/1999/xlink">
    <!-- Generator: Sketch 53.2 (72643) - https://sketchapp.com -->
    <title>形状</title>
    <desc>Created with Sketch.</desc>
    <g id="页面-1" stroke="none" stroke-width="1" fill="none" fill-rule="evenodd">
        <g id="获取任务详情" transform="translate(-348.000000, -1056.000000)" fill="#FFFFFF" fill-rule="nonzero">
            <g id="分组-4" transform="translate(300.000000, 1033.000000)">
                <path d="M90.2762236,55.4397348 L90.2762236,55.4397348 C91.2282367,55.4397348 91.9999958,56.2114939 91.9999958,57.163507 C91.9999958,57.1635084 91.9999958,57.1635098 91.9999958,57.1635112 L91.9999805,63.4959922 C92.006549,64.6848688 90.3531961,66.9933679 89.1641992,66.9999356 C89.1417004,67.0000599 89.1491999,66.9999725 89.1417004,66.9999356 L82.1930323,66.9999356 C81.2241746,66.9999356 80.4375519,66.216812 80.4332326,65.2479639 L80.4332326,65.2479639 C80.4289382,64.2846807 81.2063521,63.500304 82.1696354,63.4960095 C82.1722273,63.495998 82.1748192,63.4959922 82.1774112,63.4959922 L87.1241201,63.4959922 C87.6101278,63.4959922 88.5524663,62.9125194 88.5524663,62.4265637 L88.5524519,57.1635112 C88.5524493,56.2114984 89.3242061,55.4397374 90.2762189,55.4397348 C90.2762205,55.4397348 90.276222,55.4397348 90.2762236,55.4397348 Z M51.4475562,57.1306626 L51.4475418,62.393917 C51.4475418,62.8798727 52.3898803,63.4633455 52.875888,63.4633454 L57.8223917,63.4633454 C57.8249837,63.4633454 57.8275756,63.4633512 57.8301676,63.4633628 C58.7935641,63.4676567 59.5710699,64.2520334 59.5667755,65.2153171 C59.5624562,66.1841651 58.7757417,66.9672889 57.8067706,66.9672889 L50.8583077,66.9672889 C50.8508082,66.9673258 50.8583077,66.9674131 50.8358089,66.9672889 C49.646812,66.9607212 47.9934591,64.652222 48.0000276,63.4633454 L48.0000123,57.1306584 C48.0000123,56.1787568 48.7717714,55.407088 49.7237845,55.407088 C50.675802,55.4070906 51.4475588,56.1787612 51.4475562,57.1306626 Z M88.5480701,32.8830057 L88.5480846,27.4260793 C88.5480846,26.9401236 87.6057461,26.3566508 87.1197384,26.3566509 L82.0768104,26.3566509 C81.1588937,26.3523397 80.4245576,25.6111295 80.428851,24.7010932 C80.4331705,23.7854951 81.176707,23.0455355 82.0924225,23.0455142 C87.1145798,23.0454534 89.6324488,23.0454605 89.6460295,23.0455355 C90.8350263,23.0521032 92.0021673,25.1677743 91.9955988,26.3566509 L91.9956206,32.8830115 C91.9956206,33.8349145 91.2238604,34.6065843 90.271846,34.6065843 C89.3198263,34.6065818 88.5480676,33.8349094 88.5480701,32.8830057 Z M48.0000058,32.8830115 L48.0000276,26.3566509 C47.9934591,25.1677743 49.160139,23.0455355 50.3491534,23.0455355 L57.8753811,23.0000314 C58.803891,22.9944176 59.5611483,23.7424844 59.5667628,24.6708855 L59.5667755,24.6732516 C59.5710692,25.5986642 58.8242669,26.3523396 57.8987459,26.3566328 L57.8909715,26.3566509 L52.875888,26.3566509 C52.3898803,26.3566508 51.4475418,26.9401236 51.4475418,27.4260793 L51.4475563,32.8830057 C51.4475589,33.8349094 50.6758002,34.6065818 49.723785,34.6065843 C48.771766,34.6065843 48.0000058,33.8349145 48.0000058,32.8830115 Z M89.6460295,45.5486875 L89.6460295,45.5486875 C89.6460295,46.4981664 88.8763247,47.2678711 87.9268458,47.2678711 L52.068337,47.2678711 C51.1188581,47.2678711 50.3491534,46.4981664 50.3491534,45.5486875 L50.3491534,45.5486875 C50.3491534,44.5992086 51.1188581,43.8295038 52.068337,43.8295038 L87.9268458,43.8295038 C88.8763247,43.8295038 89.6460295,44.5992086 89.6460295,45.5486875 Z" id="形状"></path>
            </g>
        </g>
    </g>
</svg>