<?xml version="1.0" encoding="UTF-8"?>
<svg width="23px" height="38px" viewBox="0 0 23 38" version="1.1" xmlns="http://www.w3.org/2000/svg" xmlns:xlink="http://www.w3.org/1999/xlink">
    <!-- Generator: Sketch 53.2 (72643) - https://sketchapp.com -->
    <title>合并形状</title>
    <desc>Created with Sketch.</desc>
    <g id="Page-1" stroke="none" stroke-width="1" fill="none" fill-rule="evenodd">
        <g id="0412我的申请-审批信息展开" transform="translate(-32.000000, -65.000000)" fill="#1D1F2B">
            <g id="分组-2" transform="translate(32.000000, 65.000000)">
                <path d="M1.13987136,17.918361 L19.2520717,1.07935386 C19.9353538,0.444102956 20.9931558,0.444102956 21.6764378,1.07935386 C22.2988478,1.65801164 22.3343159,2.63166941 21.7556581,3.25407936 C21.7302217,3.28143899 21.7037975,3.30786327 21.6764378,3.33329967 L4.7040996,19.112571 L21.6726711,34.8883404 C22.295081,35.4669982 22.3305492,36.440656 21.7518914,37.0630659 C21.726455,37.0904256 21.7000307,37.1168498 21.6726711,37.1422862 C20.989389,37.7775371 19.931587,37.7775371 19.248305,37.1422862 L1.06555917,20.2376926 C0.44314922,19.6590349 0.407681075,18.6853771 0.986338852,18.0629671 C1.01177525,18.0356075 1.03819953,18.0091832 1.06555917,17.9837468 C1.08986715,17.9611476 1.11464912,17.9393523 1.13987136,17.918361 Z" id="合并形状"></path>
            </g>
        </g>
    </g>
</svg>