<?xml version="1.0" encoding="UTF-8"?>
<svg width="37px" height="37px" viewBox="0 0 37 37" version="1.1" xmlns="http://www.w3.org/2000/svg" xmlns:xlink="http://www.w3.org/1999/xlink">
    <!-- Generator: Sketch 53.2 (72643) - https://sketchapp.com -->
    <title>搜索图标</title>
    <desc>Created with Sketch.</desc>
    <g id="Page-1" stroke="none" stroke-width="1" fill="none" fill-rule="evenodd">
        <g id="切图" transform="translate(-670.000000, -373.000000)" fill="#A2A3A9" fill-rule="nonzero">
            <path d="M687.888758,406.202686 C687.471611,406.23404 687.050169,406.25 686.625,406.25 C677.443266,406.25 670,398.806734 670,389.625 C670,380.443266 677.443266,373 686.625,373 C695.806734,373 703.25,380.443266 703.25,389.625 C703.25,393.784743 701.722268,397.587666 699.19728,400.503291 L705.544243,406.371304 C706.355294,407.121151 706.404908,408.386509 705.655061,409.197559 C705.632886,409.221544 705.610127,409.244982 705.586804,409.267852 L705.394255,409.456662 C704.632773,410.203356 703.419349,410.221185 702.636257,409.497186 L695.105786,402.534975 C694.294735,401.785128 694.24512,400.51977 694.994968,399.70872 C695.017143,399.684735 695.039902,399.661297 695.063225,399.638427 L695.255774,399.449617 C695.295894,399.410276 695.337269,399.372959 695.379769,399.337666 C695.37455,399.336323 695.369322,399.335024 695.364085,399.33377 C698.018596,396.942838 699.6875,393.478816 699.6875,389.625 C699.6875,382.41078 693.83922,376.5625 686.625,376.5625 C679.41078,376.5625 673.5625,382.41078 673.5625,389.625 C673.5625,396.83922 679.41078,402.6875 686.625,402.6875 C686.964456,402.6875 687.300887,402.674552 687.633827,402.649122 C688.188641,402.367374 688.881518,402.452927 689.352486,402.905781 L689.75631,403.294073 C690.353468,403.868263 690.372086,404.817828 689.797896,405.414986 C689.784307,405.429118 689.770442,405.442983 689.75631,405.456572 L689.352486,405.844865 C688.951405,406.230519 688.389387,406.349793 687.888758,406.202686 Z" id="搜索图标"></path>
        </g>
    </g>
</svg>