<?xml version="1.0" encoding="UTF-8"?>
<svg width="8px" height="17px" viewBox="0 0 8 17" version="1.1" xmlns="http://www.w3.org/2000/svg" xmlns:xlink="http://www.w3.org/1999/xlink">
    <!-- Generator: Sketch 53.2 (72643) - https://sketchapp.com -->
    <title>合并形状</title>
    <desc>Created with Sketch.</desc>
    <g id="Page-1" stroke="none" stroke-width="1" fill="none" fill-rule="evenodd">
        <g id="搜索-copy" transform="translate(-713.000000, -267.000000)" fill="#787E8E">
            <g id="分组-4" transform="translate(0.000000, 194.000000)">
                <path d="M720.378363,81.3430429 C720.399436,81.6613957 720.32719,81.9879336 720.154113,82.2794982 L716.315479,88.7460346 C716.284109,88.7988802 716.248698,88.8492197 716.209562,88.8966026 C715.790484,89.4039978 715.039429,89.475593 714.532034,89.0565149 C713.914402,88.5463875 713.760498,87.6623411 714.169402,86.9735036 L717.511729,81.3430429 L714.169402,75.7125822 C713.760498,75.0237448 713.914402,74.1396983 714.532034,73.6295709 C715.039429,73.2104928 715.790484,73.282088 716.209562,73.7894832 C716.248698,73.8368661 716.284109,73.8872057 716.315479,73.9400512 L720.154113,80.4065876 C720.32719,80.6981522 720.399436,81.0246901 720.378363,81.3430429 Z" id="合并形状"></path>
            </g>
        </g>
    </g>
</svg>