<?xml version="1.0" encoding="UTF-8"?>
<svg width="95px" height="95px" viewBox="0 0 95 95" version="1.1" xmlns="http://www.w3.org/2000/svg" xmlns:xlink="http://www.w3.org/1999/xlink">
    <!-- Generator: Sketch 53.2 (72643) - https://sketchapp.com -->
    <title>绑定</title>
    <desc>Created with Sketch.</desc>
    <g id="Page-1" stroke="none" stroke-width="1" fill="none" fill-rule="evenodd">
        <g id="08电子价签" transform="translate(-328.000000, -300.000000)" fill="#FFFFFF">
            <path d="M414.481754,300 L362.3075,300 C357.622066,300 353.789255,303.817091 353.789255,308.482131 L353.789255,353.013319 C353.789255,357.678358 357.622066,361.49545 362.3075,361.49545 L382.538334,361.49545 L382.538334,356.194118 L362.3075,356.194118 C361.46619,356.194118 360.667605,355.865435 360.060414,355.250348 C359.453755,354.646129 359.113158,353.850929 359.113158,353.013319 L359.113158,308.482131 C359.113158,307.644521 359.442841,306.849321 360.060414,306.245101 C360.667605,305.640485 361.46619,305.301332 362.3075,305.301332 L414.481754,305.301332 C415.322399,305.301332 416.120984,305.630014 416.728442,306.245101 C417.334967,306.849321 417.676097,307.644521 417.676097,308.482131 L417.676097,353.013319 C417.676097,353.850929 417.346014,354.646129 416.728442,355.250348 C416.120984,355.854965 415.322399,356.194118 414.481754,356.194118 L405.760801,356.194118 L405.760801,361.49545 L414.481754,361.49545 C419.166656,361.49545 423,357.678358 423,353.013319 L423,308.482131 C423,303.817091 419.166656,300 414.481754,300 M397.210745,341.986681 L397.210745,386.517869 C397.210745,391.182909 393.377535,395 388.6925,395 L336.518246,395 C331.833477,395 328,391.182909 328,386.517869 L328,341.986681 C328,337.321642 331.833477,333.50455 336.518246,333.50455 L344.237906,333.50455 L344.237906,338.805882 L336.528627,338.805882 C335.687983,338.805882 334.889397,339.134565 334.282206,339.749652 C333.675414,340.353738 333.334285,341.148938 333.334285,341.986681 L333.334285,386.517869 C333.334285,387.355479 333.6645,388.150679 334.282206,388.754899 C334.889397,389.358985 335.687983,389.698668 336.528627,389.698668 L388.702881,389.698668 C389.544191,389.698668 390.342777,389.369853 390.949968,388.754899 C391.556893,388.150679 391.897223,387.355479 391.897223,386.517869 L391.897223,341.986681 C391.897223,341.148938 391.567807,340.353738 390.949968,339.749652 C390.342777,339.144902 389.544191,338.805882 388.702881,338.805882 L367.449859,338.805882 L367.449859,333.50455 L388.6925,333.50455 C393.377535,333.50455 397.210745,337.321642 397.210745,341.986681" id="绑定"></path>
        </g>
    </g>
</svg>