<?xml version="1.0" encoding="UTF-8"?>
<svg width="39px" height="39px" viewBox="0 0 39 39" version="1.1" xmlns="http://www.w3.org/2000/svg" xmlns:xlink="http://www.w3.org/1999/xlink">
    <!-- Generator: Sketch 53.2 (72643) - https://sketchapp.com -->
    <title>关  闭</title>
    <desc>Created with Sketch.</desc>
    <g id="Page-1" stroke="none" stroke-width="1" fill="none" fill-rule="evenodd">
        <g id="筛选" transform="translate(-671.000000, -824.000000)" fill="#000000">
            <g id="分组-2" transform="translate(0.000000, 794.000000)">
                <g id="关--闭" transform="translate(671.000000, 30.000000)">
                    <g id="分组">
                        <path d="M19.5,39 C8.72857143,39 0,30.2714286 0,19.5 C0,8.72857143 8.72857143,0 19.5,0 C30.2714286,0 39,8.72857143 39,19.5 C39,30.2714286 30.2714286,39 19.5,39 Z M19.5,1.85714286 C9.78095238,1.85714286 1.85714286,9.78095238 1.85714286,19.5 C1.85714286,29.2190476 9.78095238,37.1428571 19.5,37.1428571 C29.2190476,37.1428571 37.1428571,29.2190476 37.1428571,19.5 C37.1428571,9.78095238 29.2190476,1.85714286 19.5,1.85714286 Z" id="形状" fill-rule="nonzero"></path>
                        <path d="M20.9238095,19.5 L28.4761905,11.947619 C28.847619,11.5761905 28.847619,10.9571429 28.4761905,10.5238095 L28.4142857,10.4619048 C28.0428571,10.0904762 27.4238095,10.0904762 27.052381,10.4619048 L19.5,18.0761905 L11.947619,10.5238095 C11.5761905,10.152381 10.9571429,10.152381 10.5857143,10.5238095 L10.5238095,10.5857143 C10.152381,10.9571429 10.152381,11.5761905 10.5238095,12.0095238 L18.0761905,19.5 L10.5238095,27.052381 C10.152381,27.4238095 10.152381,28.0428571 10.5238095,28.4761905 L10.5857143,28.5380952 C10.9571429,28.9095238 11.5761905,28.9095238 11.947619,28.5380952 L19.5,20.9238095 L27.052381,28.4761905 C27.4238095,28.847619 28.0428571,28.847619 28.4142857,28.4761905 L28.4761905,28.4142857 C28.847619,28.0428571 28.847619,27.4238095 28.4761905,26.9904762 L20.9238095,19.5 Z" id="路径"></path>
                    </g>
                </g>
            </g>
        </g>
    </g>
</svg>